<?xml version="1.0" encoding="UTF-8" standalone="no"?>
<!-- Created with Inkscape (http://www.inkscape.org/) -->

<svg
   version="1.1"
   id="svg2"
   width="300"
   height="105.33333"
   viewBox="0 0 300 105.33333"
   sodipodi:docname="maxim-seeklogo.eps"
   xmlns:inkscape="http://www.inkscape.org/namespaces/inkscape"
   xmlns:sodipodi="http://sodipodi.sourceforge.net/DTD/sodipodi-0.dtd"
   xmlns="http://www.w3.org/2000/svg"
   xmlns:svg="http://www.w3.org/2000/svg">
  <defs
     id="defs6" />
  <sodipodi:namedview
     id="namedview4"
     pagecolor="#ffffff"
     bordercolor="#000000"
     borderopacity="0.25"
     inkscape:showpageshadow="2"
     inkscape:pageopacity="0.0"
     inkscape:pagecheckerboard="0"
     inkscape:deskcolor="#d1d1d1" />
  <g
     id="g8"
     inkscape:groupmode="layer"
     inkscape:label="ink_ext_XXXXXX"
     transform="matrix(1.3333333,0,0,-1.3333333,0,105.33333)">
    <g
       id="g10"
       transform="scale(0.1)">
      <path
         d="M 2.17969,783.34 H 2249.9 V 6.67969 H 2.17969 V 783.34"
         style="fill:#ffffff;fill-opacity:1;fill-rule:evenodd;stroke:none"
         id="path12" />
      <path
         d="m 805.289,505.992 c 96.305,0 174.371,-78.07 174.371,-174.375 V 204.473 c 0,-25.953 -21.164,-47.121 -47.117,-47.121 H 811.129 c -1.938,-0.063 -3.883,-0.106 -5.84,-0.106 -96.305,0 -174.375,78.067 -174.375,174.371 0,96.305 78.07,174.375 174.375,174.375 z m 0,-74.496 c 55.16,0 99.879,-44.715 99.879,-99.879 0,-55.16 -44.719,-99.879 -99.879,-99.879 -55.164,0 -99.879,44.719 -99.879,99.879 0,55.164 44.715,99.879 99.879,99.879"
         style="fill:#ff0000;fill-opacity:1;fill-rule:evenodd;stroke:none"
         id="path14" />
      <path
         d="m 247.051,505.992 c 38.113,0 72.484,-16.023 96.75,-41.691 24.269,25.668 58.637,41.691 96.746,41.691 73.527,0 133.129,-59.601 133.129,-133.125 V 192.039 c 0,-19.164 -15.633,-34.797 -34.801,-34.797 h -3.152 c -19.164,0 -34.801,15.633 -34.801,34.797 v 180.828 h 0.004 c 0,33.344 -27.031,60.375 -60.375,60.375 -33.348,0 -60.375,-27.031 -60.375,-60.375 V 254.191 192.039 c 0,-19.164 -15.633,-34.797 -34.797,-34.797 h -3.156 c -19.164,0 -34.797,15.633 -34.797,34.797 v 180.828 c 0,33.344 -27.028,60.375 -60.371,60.375 -33.348,0 -60.375,-27.031 -60.375,-60.375 V 254.191 192.039 c 0,-19.164 -15.637,-34.797 -34.801,-34.797 h -3.152 c -19.168,0 -34.801,15.633 -34.801,34.797 v 180.828 c 0,73.524 59.601,133.125 133.125,133.125 z M 2072.15,612 c 18.21,0 34.7,-7.391 46.64,-19.332 l 0.03,-0.031 c 11.94,-11.946 19.33,-28.438 19.33,-46.637 0,-18.203 -7.39,-34.695 -19.33,-46.641 l -0.03,-0.027 C 2106.85,487.391 2090.36,480 2072.15,480 c -18.2,0 -34.69,7.391 -46.63,19.332 l -0.03,0.027 c -11.95,11.946 -19.33,28.438 -19.33,46.641 0,18.199 7.38,34.691 19.33,46.637 l 0.03,0.031 c 11.94,11.941 28.43,19.332 46.63,19.332 z m -27.11,-96.148 v 60.293 h 25.64 c 6.44,0 11.13,-0.547 14.05,-1.633 2.93,-1.078 5.26,-3 7.02,-5.766 1.75,-2.777 2.64,-5.937 2.64,-9.5 0,-4.531 -1.32,-8.266 -3.98,-11.215 -2.65,-2.945 -6.61,-4.797 -11.88,-5.57 2.62,-1.531 4.78,-3.215 6.48,-5.055 1.71,-1.836 4.01,-5.105 6.9,-9.793 l 7.36,-11.761 h -14.56 l -8.73,13.164 c -3.12,4.675 -5.27,7.621 -6.43,8.843 -1.16,1.207 -2.38,2.047 -3.67,2.496 -1.3,0.45 -3.35,0.676 -6.16,0.676 h -2.47 v -25.179 z m 12.21,34.777 h 9.01 c 5.84,0 9.47,0.254 10.94,0.746 1.44,0.488 2.59,1.344 3.41,2.555 0.82,1.203 1.23,2.718 1.23,4.531 0,2.035 -0.55,3.664 -1.63,4.922 -1.08,1.25 -2.61,2.035 -4.58,2.359 -0.99,0.141 -3.95,0.211 -8.88,0.211 h -9.5 z m 50.98,31.449 c -9.22,9.215 -21.98,14.918 -36.08,14.918 -14.09,0 -26.85,-5.703 -36.08,-14.918 -9.21,-9.226 -14.91,-21.98 -14.91,-36.078 0,-14.098 5.7,-26.852 14.91,-36.078 9.23,-9.219 21.99,-14.922 36.08,-14.922 14.1,0 26.86,5.703 36.08,14.922 9.22,9.226 14.92,21.98 14.92,36.078 0,14.098 -5.7,26.852 -14.92,36.078 z m -436.18,-76.086 c 38.12,0 72.49,-16.023 96.76,-41.691 24.26,25.668 58.63,41.691 96.74,41.691 73.53,0 133.13,-59.601 133.13,-133.125 V 192.039 c 0,-19.164 -15.63,-34.797 -34.8,-34.797 h -3.15 c -19.17,0 -34.8,15.633 -34.8,34.797 v 180.828 0 c 0,33.344 -27.03,60.375 -60.38,60.375 -33.34,0 -60.37,-27.031 -60.37,-60.375 V 254.191 192.039 c 0,-19.164 -15.63,-34.797 -34.8,-34.797 h -3.15 c -19.17,0 -34.8,15.633 -34.8,34.797 v 180.828 c 0,33.344 -27.03,60.375 -60.37,60.375 -33.35,0 -60.38,-27.031 -60.38,-60.375 V 254.191 192.039 c 0,-19.164 -15.63,-34.797 -34.8,-34.797 h -3.15 c -19.17,0 -34.8,15.633 -34.8,34.797 v 180.828 c 0,73.524 59.6,133.125 133.12,133.125 z m -247.3,0 h 3.16 c 19.16,0 34.79,-15.633 34.79,-34.797 V 192.039 c 0,-19.164 -15.63,-34.797 -34.79,-34.797 h -3.16 c -19.16,0 -34.8,15.633 -34.8,34.797 v 279.156 c 0,19.164 15.64,34.797 34.8,34.797 z m 1.58,126.785 c 24.05,0 43.53,-19.488 43.53,-43.535 0,-24.047 -19.48,-43.535 -43.53,-43.535 -24.05,0 -43.54,19.488 -43.54,43.535 0,24.047 19.49,43.535 43.54,43.535 z m -393.73,-136.39 2.44,1.988 c 14.89,12.074 36.89,9.75 48.95,-5.133 l 84.09,-103.785 84.1,103.785 c 12.06,14.883 34.06,17.207 48.95,5.133 l 2.44,-1.988 c 14.89,-12.071 17.2,-34.055 5.13,-48.942 l -93.8,-115.765 93.81,-115.774 c 12.06,-14.879 9.75,-36.886 -5.13,-48.945 l -2.45,-1.984 c -14.88,-12.059 -36.88,-9.758 -48.95,5.128 l -84.1,103.793 -84.1,-103.793 c -12.06,-14.886 -34.07,-17.187 -48.94,-5.128 l -2.45,1.984 c -14.88,12.059 -17.19,34.066 -5.13,48.945 l 93.81,115.774 -93.81,115.765 c -12.06,14.887 -9.75,36.871 5.14,48.942"
         style="fill:#000000;fill-opacity:1;fill-rule:evenodd;stroke:none"
         id="path16" />
    </g>
  </g>
</svg>
